<svg width="65" height="65" viewBox="0 0 65 65" fill="none" xmlns="http://www.w3.org/2000/svg">
<circle cx="32.5" cy="32.5" r="32.5" transform="rotate(-180 32.5 32.5)" fill="url(#paint0_linear)"/>
<path d="M23.9347 30.6425H22.245C22.0839 30.6425 21.9533 30.5145 21.9533 30.3567V28.4817C21.9533 28.3239 22.0839 28.1959 22.245 28.1959H23.9016C24.6 28.1959 25.1947 28.7558 25.183 29.44C25.1717 30.1049 24.6161 30.6425 23.9347 30.6425ZM36.6408 39.8446C36.7528 40.2112 36.4726 40.58 36.082 40.58H19.0834C16.8282 40.58 15 38.7889 15 36.5794V25.8486C15 23.6391 16.8282 21.848 19.0834 21.848H42.7085C44.9636 21.848 46.7918 23.6391 46.7918 25.8486V36.5794C46.7918 37.2329 46.631 37.8503 46.3461 38.3957C46.2186 38.6397 45.9291 38.7575 45.6611 38.6789L38.4708 36.57C37.1394 36.1793 35.8934 37.3983 36.2924 38.7043L36.6408 39.8446ZM25.7122 31.4092C25.608 31.2983 25.608 31.1298 25.7122 31.0188C27.148 29.4892 25.9979 27.0529 23.889 27.0529H21.37C21.0478 27.0529 20.7866 27.3088 20.7866 27.6244C20.7866 27.7962 20.7866 34.9239 20.7866 34.8035C20.7866 35.1191 21.0478 35.375 21.37 35.375H23.889C25.9942 35.375 27.1513 32.9422 25.7122 31.4092ZM33.6775 27.6244C33.6775 27.3088 33.4163 27.0529 33.0941 27.0529C32.772 27.0529 32.5108 27.3088 32.5108 27.6244V32.6498C32.5108 33.5222 31.7863 34.232 30.8959 34.232C30.0055 34.232 29.281 33.5222 29.281 32.6498V27.6244C29.281 27.3088 29.0198 27.0529 28.6977 27.0529C28.3755 27.0529 28.1143 27.3088 28.1143 27.6244V32.6498C28.1143 34.1525 29.3622 35.375 30.8959 35.375C32.4296 35.375 33.6775 34.1525 33.6775 32.6498V27.6244ZM35.525 27.9185L37.5986 31.3044C37.6579 31.4014 37.6402 31.1553 37.6402 34.8025C37.6402 35.1308 37.9226 35.3944 38.2624 35.3728C38.5724 35.3531 38.8068 35.0873 38.8068 34.7829C38.8068 31.1645 38.7891 31.4013 38.8484 31.3045L40.9221 27.9185C41.0877 27.6479 40.9982 27.2968 40.722 27.1344C40.4455 26.9719 40.0874 27.0598 39.9216 27.3305L38.4736 29.6949C38.3603 29.8798 38.0867 29.8798 37.9734 29.6949L36.5255 27.3305C36.3598 27.0598 36.0015 26.9721 35.7251 27.1345C35.4489 27.2968 35.3593 27.6479 35.525 27.9185ZM22.245 34.232H23.9016C24.6 34.232 25.1947 33.6721 25.183 32.988C25.1716 32.323 24.616 31.7855 23.9346 31.7855H22.245C22.0839 31.7855 21.9533 31.9135 21.9533 32.0713V33.9462C21.9533 34.104 22.0839 34.232 22.245 34.232ZM31.4792 45.8564V44.8563C31.4792 44.5407 31.2181 44.2848 30.8959 44.2848C30.5738 44.2848 30.3126 44.5407 30.3126 44.8563V45.8564C30.3126 46.172 30.5738 46.4279 30.8959 46.4279C31.2181 46.4279 31.4792 46.1721 31.4792 45.8564ZM25.5122 44.703L26.234 43.9959C26.4618 43.7727 26.4618 43.4109 26.234 43.1877C26.0061 42.9645 25.6368 42.9645 25.409 43.1877L24.6872 43.8949C24.3184 44.2561 24.5848 44.8705 25.0997 44.8705C25.249 44.8705 25.3983 44.8146 25.5122 44.703ZM31.4792 17.5716V16.5715C31.4792 16.2559 31.2181 16 30.8959 16C30.5738 16 30.3126 16.2559 30.3126 16.5715V17.5716C30.3126 17.8873 30.5738 18.1432 30.8959 18.1432C31.2181 18.1432 31.4792 17.8873 31.4792 17.5716ZM26.234 18.4321L25.5122 17.725C25.2843 17.5018 24.915 17.5018 24.6872 17.725C24.4594 17.9481 24.4594 18.31 24.6872 18.5331L25.409 19.2403C25.5229 19.3519 25.6721 19.4077 25.8215 19.4077C26.3366 19.4077 26.6026 18.7932 26.234 18.4321ZM36.3828 19.2403L37.1047 18.5331C37.3324 18.31 37.3324 17.9481 37.1047 17.725C36.8768 17.5018 36.5075 17.5018 36.2797 17.725L35.5579 18.4321C35.1891 18.7934 35.4555 19.4078 35.9704 19.4078C36.1197 19.4077 36.2689 19.3519 36.3828 19.2403ZM49.7924 46.1007L45.8811 42.881L47.5035 41.2922C47.8142 40.9878 47.6827 40.4657 47.2585 40.3406L38.1358 37.6653C37.6926 37.5339 37.2762 37.9416 37.4103 38.3761L40.1411 47.3138C40.2666 47.7272 40.8004 47.8594 41.1123 47.5538L42.734 45.9643L46.0204 49.7963C46.2374 50.0487 46.634 50.0731 46.8793 49.8327L49.8295 46.9423C50.0699 46.7069 50.0548 46.3173 49.7924 46.1007Z" fill="url(#paint1_linear)"/>
<defs>
<linearGradient id="paint0_linear" x1="32.5" y1="-108.5" x2="32.5" y2="65" gradientUnits="userSpaceOnUse">
<stop stop-color="#F12711"/>
<stop offset="1" stop-color="#F5AF19" stop-opacity="0"/>
</linearGradient>
<linearGradient id="paint1_linear" x1="32.5" y1="16" x2="32.5" y2="50" gradientUnits="userSpaceOnUse">
<stop stop-color="#F12711"/>
<stop offset="1" stop-color="#F5AF19" stop-opacity="0.97"/>
</linearGradient>
</defs>
</svg>
