<svg width="65" height="65" viewBox="0 0 65 65" fill="none" xmlns="http://www.w3.org/2000/svg">
<circle cx="32.5" cy="32.5" r="32.5" transform="rotate(-180 32.5 32.5)" fill="url(#paint0_linear)"/>
<path d="M48.1926 16H36.9625C35.0923 16 33.5708 17.5215 33.5708 19.3917V29.0239L32.6717 32.0208C32.3987 32.931 32.7103 33.8917 33.4658 34.4681C33.8727 34.7786 34.353 34.9356 34.8356 34.9356C35.2489 34.9356 35.664 34.8204 36.0357 34.588L38.0404 33.3351H48.1926C50.0627 33.3351 51.5842 31.8136 51.5842 29.9435V19.3917C51.5843 17.5215 50.0628 16 48.1926 16ZM43.7458 28.5115H41.334C40.7096 28.5115 40.2034 28.0053 40.2034 27.3809C40.2034 26.7565 40.7096 26.2503 41.334 26.2503H43.7458C44.3702 26.2503 44.8764 26.7565 44.8764 27.3809C44.8764 28.0053 44.3702 28.5115 43.7458 28.5115ZM45.5547 23.0848H39.5251C38.9007 23.0848 38.3945 22.5786 38.3945 21.9542C38.3945 21.3299 38.9007 20.8237 39.5251 20.8237H45.5547C46.1791 20.8237 46.6852 21.3299 46.6852 21.9542C46.6852 22.5786 46.1791 23.0848 45.5547 23.0848Z" fill="url(#paint1_linear)"/>
<path d="M13 44.1895C13.1192 47.2019 15.6059 49.6161 18.647 49.6161H45.931C48.9722 49.6161 51.4589 47.2019 51.5781 44.1895H13Z" fill="url(#paint2_linear)"/>
<path d="M25.0528 34.6915C25.7604 34.6915 26.3341 34.1178 26.3341 33.4102C26.3341 32.7026 25.7604 32.1289 25.0528 32.1289C24.3451 32.1289 23.7715 32.7026 23.7715 33.4102C23.7715 34.1178 24.3451 34.6915 25.0528 34.6915Z" fill="url(#paint3_linear)"/>
<path d="M23.1699 38.2344V41.9276H26.9384V38.2344C26.9384 37.8416 26.6495 37.5517 26.4771 37.4139C26.1111 37.1211 25.5925 36.9531 25.0542 36.9531C24.0504 36.9531 23.1699 37.5519 23.1699 38.2344Z" fill="url(#paint4_linear)"/>
<path d="M38.6879 35.5956L37.2332 36.5048C36.5098 36.957 35.6803 37.196 34.8347 37.196C33.8392 37.196 32.8912 36.8741 32.0931 36.265C31.3553 35.702 30.8153 34.9419 30.5314 34.0668C30.2475 33.1918 30.2384 32.2594 30.505 31.3705L31.3088 28.6914V23.8379H19.4756C17.6055 23.8379 16.084 25.3594 16.084 27.2295V40.7962C16.084 41.1925 16.1529 41.5729 16.2784 41.9267H20.9077V38.2336C20.9077 37.1922 21.4365 36.2544 22.2764 35.6057C21.7976 35.0016 21.5106 34.2388 21.5106 33.4099C21.5106 31.4566 23.0997 29.8675 25.053 29.8675C27.0063 29.8675 28.5954 31.4566 28.5954 33.4099C28.5954 34.2379 28.3091 34.9999 27.8313 35.6037C27.8503 35.6183 27.8698 35.6324 27.8885 35.6473C28.7209 36.3133 29.1984 37.256 29.1984 38.2335V41.9267H48.2987C48.4242 41.5728 48.4932 41.1924 48.4932 40.7961V35.597C48.3792 35.597 38.6879 35.5956 38.6879 35.5956Z" fill="url(#paint5_linear)"/>
<defs>
<linearGradient id="paint0_linear" x1="32.5" y1="-117.5" x2="32.5" y2="65" gradientUnits="userSpaceOnUse">
<stop stop-color="#B91D73"/>
<stop offset="1" stop-color="#F953C6" stop-opacity="0"/>
</linearGradient>
<linearGradient id="paint1_linear" x1="42.0792" y1="16" x2="42.0792" y2="34.9356" gradientUnits="userSpaceOnUse">
<stop stop-color="#B91D73"/>
<stop offset="1" stop-color="#F953C6" stop-opacity="0.87"/>
</linearGradient>
<linearGradient id="paint2_linear" x1="32.289" y1="44.1895" x2="32.289" y2="49.6161" gradientUnits="userSpaceOnUse">
<stop stop-color="#B91D73"/>
<stop offset="1" stop-color="#F953C6" stop-opacity="0.87"/>
</linearGradient>
<linearGradient id="paint3_linear" x1="25.0528" y1="32.1289" x2="25.0528" y2="34.6915" gradientUnits="userSpaceOnUse">
<stop stop-color="#B91D73"/>
<stop offset="1" stop-color="#F953C6" stop-opacity="0.87"/>
</linearGradient>
<linearGradient id="paint4_linear" x1="25.0542" y1="36.9531" x2="25.0542" y2="41.9276" gradientUnits="userSpaceOnUse">
<stop stop-color="#B91D73"/>
<stop offset="1" stop-color="#F953C6" stop-opacity="0.87"/>
</linearGradient>
<linearGradient id="paint5_linear" x1="32.2886" y1="23.8379" x2="32.2886" y2="41.9267" gradientUnits="userSpaceOnUse">
<stop stop-color="#B91D73"/>
<stop offset="1" stop-color="#F953C6" stop-opacity="0.87"/>
</linearGradient>
</defs>
</svg>
