<svg width="42" height="42" viewBox="0 0 42 42" fill="none" xmlns="http://www.w3.org/2000/svg">
<g clip-path="url(#clip0_14208_96514)">
<path d="M4.375 19.7905V36.4155C4.375 37.7265 5.44137 38.7905 6.75 38.7905H35.25C36.561 38.7905 37.625 37.7265 37.625 36.4155V19.7905H4.375Z" fill="#FFC107"/>
<path d="M37.625 12.6655H4.375C3.06637 12.6655 2 13.7319 2 15.0405V20.978C2 21.6335 2.532 22.1655 3.1875 22.1655H38.8125C39.468 22.1655 40 21.6335 40 20.978V15.0405C40 13.7295 38.936 12.6655 37.625 12.6655Z" fill="#FFD54F"/>
<path d="M23.9522 15.0406H18.0455C15.5993 15.0406 11.9204 12.972 10.5619 11.604C8.65003 9.67789 8.65003 6.54052 10.5643 4.61439C12.4239 2.74289 15.6682 2.74289 17.5302 4.61439C18.5585 5.64989 21.2898 9.85602 20.9145 12.6633H21.0832C20.7079 9.85602 23.4392 5.64989 24.4699 4.61439C26.3272 2.74289 29.5714 2.73814 31.4358 4.61439C33.3524 6.54052 33.3524 9.67552 31.4358 11.6016C30.0773 12.9696 26.3984 15.0406 23.9522 15.0406ZM23.9522 12.6656C25.5933 12.6656 28.7283 10.9604 29.7495 9.92964C30.747 8.92739 30.747 7.29339 29.7495 6.29114C28.7853 5.31977 27.1109 5.32452 26.1514 6.29114C24.5507 7.90139 22.9594 12.0149 23.5128 12.5873C23.5152 12.5873 23.6149 12.6656 23.9522 12.6656ZM14.0484 5.54064C13.3692 5.54064 12.7303 5.80664 12.2482 6.29114C11.253 7.29339 11.253 8.92739 12.2482 9.92964C13.2718 10.9604 16.4044 12.6656 18.0455 12.6656C18.3852 12.6656 18.4849 12.5896 18.4849 12.5896C19.0383 12.0125 17.447 7.89902 15.8463 6.29114C15.3642 5.80664 14.7253 5.54064 14.0484 5.54064Z" fill="#F45836"/>
<path d="M23.375 12.6655H18.625V38.7905H23.375V12.6655Z" fill="#F45836"/>
</g>
<defs>
<clipPath id="clip0_14208_96514">
<rect width="38" height="38" fill="white" transform="translate(2 2)"/>
</clipPath>
</defs>
</svg>
