<svg xmlns="http://www.w3.org/2000/svg"  viewBox="0 0 48 48" width="144px" height="144px"><path d="M 23 4 C 10.477 4 3 14.28 3 31.5 L 3 36.5 C 3 39.538 5.462 42 8.5 42 L 17.833984 42 C 19.693984 43.277 21.782 44 24 44 C 26.216 44 28.303109 43.278 30.162109 42 L 39.5 42 C 42.538 42 45 39.538 45 36.5 L 45 31.5 C 45 12.512 35.953625 6.9383906 30.640625 6.5253906 C 29.648625 5.6453906 27.231 4 23 4 z M 28.902344 17.109375 C 30.547344 17.527375 34.979047 19.235938 34.998047 25.460938 C 34.506047 34.177937 29.681 41 24 41 C 18.315 41 13.486 34.166453 13 25.439453 L 13 22.5 C 13 21.672 13.672 21 14.5 21 C 14.896 21 23.879344 20.953375 28.902344 17.109375 z M 19 26 A 2 2 0 0 0 19 30 A 2 2 0 0 0 19 26 z M 29 26 A 2 2 0 0 0 29 30 A 2 2 0 0 0 29 26 z"/></svg>