<svg width="600" height="401" viewBox="0 0 600 401" fill="none" xmlns="http://www.w3.org/2000/svg">
<path d="M594.256 394H4.92251C2.20388 394 0 395.567 0 397.5C0 399.433 2.20388 401 4.92251 401H594.256C596.975 401 599.179 399.433 599.179 397.5C599.179 395.567 596.975 394 594.256 394Z" fill="#9F5F80"/>
<path opacity="0.2" fillRule="evenodd" clip-rule="evenodd" d="M295.59 6.44802C335.583 5.678 375.66 -8.09044 412.654 7.12455C455.751 24.8496 498.802 53.2832 515.369 96.8388C532.192 141.069 521.097 192.478 499.088 234.37C479.071 272.47 434.748 286.673 401.365 313.837C365.214 343.253 342.163 398.18 295.59 399.956C249.077 401.729 221.16 349.878 183.787 322.132C146.947 294.781 89.0287 283.445 78.5024 238.785C67.91 193.845 116.135 158.182 135.237 116.148C151.417 80.5421 149.477 33.6525 181.756 11.5702C213.891 -10.4142 256.661 7.19754 295.59 6.44802Z" fill="url(#emptysearch-1)"/>
<g clip-path="url(#emptysearch-11)">
<path d="M446.39 142.24H230.62C225.489 142.24 221.33 146.399 221.33 151.53V212.24C221.33 217.371 225.489 221.53 230.62 221.53H446.39C451.521 221.53 455.68 217.371 455.68 212.24V151.53C455.68 146.399 451.521 142.24 446.39 142.24Z" fill="white"/>
<path d="M240.65 220.53H230.65C228.45 220.527 226.34 219.652 224.784 218.096C223.228 216.54 222.353 214.43 222.35 212.23V151.53C222.353 149.329 223.228 147.22 224.784 145.664C226.34 144.108 228.45 143.233 230.65 143.23H446.39C448.591 143.233 450.7 144.108 452.256 145.664C453.812 147.22 454.687 149.329 454.69 151.53V172.35H456.69V151.53C456.687 148.799 455.601 146.181 453.67 144.25C451.739 142.319 449.121 141.233 446.39 141.23H230.63C227.899 141.233 225.281 142.319 223.35 144.25C221.419 146.181 220.333 148.799 220.33 151.53V212.23C220.333 214.961 221.419 217.579 223.35 219.51C225.281 221.441 227.899 222.527 230.63 222.53H240.63L240.65 220.53Z" fill="#9F5F80"/>
<path d="M328.16 67H361.57C363.519 67.0026 365.387 67.7779 366.764 69.1557C368.142 70.5335 368.917 72.4015 368.92 74.35V87.64H370.92V74.35C370.92 71.8702 369.935 69.492 368.182 67.7385C366.428 65.9851 364.05 65 361.57 65H328.16V67Z" fill="#9F5F80"/>
<path d="M194.37 131.35L196.15 129.35H188.71C186.762 129.347 184.894 128.572 183.516 127.194C182.138 125.816 181.363 123.949 181.36 122V74.35C181.363 72.4015 182.138 70.5335 183.516 69.1557C184.894 67.7779 186.762 67.0026 188.71 67H239.5L240.62 65H188.71C186.231 65.0026 183.855 65.9886 182.102 67.7415C180.349 69.4944 179.363 71.871 179.36 74.35V122C179.366 124.478 180.352 126.853 182.105 128.606C183.857 130.358 186.232 131.345 188.71 131.35H194.37Z" fill="#9F5F80"/>
<path d="M307.04 282.7V241.17C307.043 239.408 307.745 237.719 308.991 236.474C310.238 235.229 311.928 234.53 313.69 234.53H486.86C488.622 234.53 490.312 235.229 491.559 236.474C492.806 237.719 493.507 239.408 493.51 241.17V263.06L495.51 263.19V241.19C495.507 238.898 494.595 236.7 492.973 235.08C491.351 233.46 489.152 232.55 486.86 232.55H313.71C311.418 232.55 309.219 233.46 307.597 235.08C305.975 236.7 305.063 238.898 305.06 241.19V282.72L307.04 282.7Z" fill="#9F5F80"/>
<path d="M415.81 243.91H356.98C354.577 243.91 352.63 245.855 352.63 248.255C352.63 250.655 354.577 252.6 356.98 252.6H415.81C418.212 252.6 420.16 250.655 420.16 248.255C420.16 245.855 418.212 243.91 415.81 243.91Z" fill="#C39BB0"/>
<path d="M392.14 277.35H350.71C348.992 277.35 347.6 278.742 347.6 280.46C347.6 282.178 348.992 283.57 350.71 283.57H392.14C393.858 283.57 395.25 282.178 395.25 280.46C395.25 278.742 393.858 277.35 392.14 277.35Z" fill="#E6D0BE"/>
<path d="M482.93 286.26H356.06C354.343 286.26 352.95 287.652 352.95 289.37C352.95 291.088 354.343 292.48 356.06 292.48H482.93C484.648 292.48 486.04 291.088 486.04 289.37C486.04 287.652 484.648 286.26 482.93 286.26Z" fill="#E6D0BE"/>
<path d="M437.22 277.35H401.18C399.462 277.35 398.07 278.742 398.07 280.46C398.07 282.178 399.462 283.57 401.18 283.57H437.22C438.937 283.57 440.33 282.178 440.33 280.46C440.33 278.742 438.937 277.35 437.22 277.35Z" fill="#E6D0BE"/>
<path d="M482.93 277.35H446.89C445.172 277.35 443.78 278.742 443.78 280.46C443.78 282.178 445.172 283.57 446.89 283.57H482.93C484.647 283.57 486.04 282.178 486.04 280.46C486.04 278.742 484.647 277.35 482.93 277.35Z" fill="#E6D0BE"/>
<path d="M387.39 258.53H356.46C354.345 258.53 352.63 260.245 352.63 262.36C352.63 264.475 354.345 266.19 356.46 266.19H387.39C389.505 266.19 391.22 264.475 391.22 262.36C391.22 260.245 389.505 258.53 387.39 258.53Z" fill="#C39BB0"/>
<path opacity="0.2" d="M342.62 243.91H322.16C318.454 243.91 315.45 246.914 315.45 250.62V267.53C315.45 271.236 318.454 274.24 322.16 274.24H342.62C346.326 274.24 349.33 271.236 349.33 267.53V250.62C349.33 246.914 346.326 243.91 342.62 243.91Z" fill="url(#emptysearch-2)"/>
<path d="M318.75 267.41L325.33 259.07L330.04 262.24L336.63 251.65L346.28 267.41H318.75Z" fill="#E8B586"/>
<path d="M328.16 256.57C329.839 256.57 331.2 255.209 331.2 253.53C331.2 251.851 329.839 250.49 328.16 250.49C326.481 250.49 325.12 251.851 325.12 253.53C325.12 255.209 326.481 256.57 328.16 256.57Z" fill="#E8B586"/>
<path d="M475.08 248.41C475.08 245.925 473.135 243.91 470.735 243.91C468.335 243.91 466.39 245.925 466.39 248.41C466.39 250.895 468.335 252.91 470.735 252.91C473.135 252.91 475.08 250.895 475.08 248.41Z" fill="url(#emptysearch-3)"/>
<path d="M486.35 248.41C486.35 245.925 484.335 243.91 481.85 243.91C479.365 243.91 477.35 245.925 477.35 248.41C477.35 250.895 479.365 252.91 481.85 252.91C484.335 252.91 486.35 250.895 486.35 248.41Z" fill="url(#emptysearch-4)"/>
<path d="M431 160C431 157.239 428.761 155 426 155C423.239 155 421 157.239 421 160C421 162.761 423.239 165 426 165C428.761 165 431 162.761 431 160Z" fill="url(#emptysearch-5)"/>
<path d="M444.96 160C444.96 157.239 442.721 155 439.96 155C437.199 155 434.96 157.239 434.96 160C434.96 162.761 437.199 165 439.96 165C442.721 165 444.96 162.761 444.96 160Z" fill="url(#emptysearch-6)"/>
<path d="M290.87 76.32H232.04C229.637 76.32 227.69 78.2653 227.69 80.665C227.69 83.0647 229.637 85.01 232.04 85.01H290.87C293.272 85.01 295.22 83.0647 295.22 80.665C295.22 78.2653 293.272 76.32 290.87 76.32Z" fill="#C39BB0"/>
<path d="M350.45 80.82C350.45 78.3347 348.435 76.32 345.95 76.32C343.465 76.32 341.45 78.3347 341.45 80.82C341.45 83.3053 343.465 85.32 345.95 85.32C348.435 85.32 350.45 83.3053 350.45 80.82Z" fill="url(#emptysearch-7)"/>
<path d="M267.2 109.77H225.77C224.053 109.77 222.66 111.162 222.66 112.88C222.66 114.598 224.053 115.99 225.77 115.99H267.2C268.918 115.99 270.31 114.598 270.31 112.88C270.31 111.162 268.918 109.77 267.2 109.77Z" fill="#E6D0BE"/>
<path d="M357.99 118.68H231.12C229.402 118.68 228.01 120.072 228.01 121.79C228.01 123.508 229.402 124.9 231.12 124.9H357.99C359.707 124.9 361.1 123.508 361.1 121.79C361.1 120.072 359.707 118.68 357.99 118.68Z" fill="#E6D0BE"/>
<path d="M312.28 109.77H276.24C274.522 109.77 273.13 111.162 273.13 112.88C273.13 114.598 274.522 115.99 276.24 115.99H312.28C313.997 115.99 315.39 114.598 315.39 112.88C315.39 111.162 313.997 109.77 312.28 109.77Z" fill="#E6D0BE"/>
<path d="M357.98 109.77H321.94C320.222 109.77 318.83 111.162 318.83 112.88C318.83 114.598 320.222 115.99 321.94 115.99H357.98C359.698 115.99 361.09 114.598 361.09 112.88C361.09 111.162 359.698 109.77 357.98 109.77Z" fill="#E6D0BE"/>
<path d="M262.45 90.94H231.52C229.405 90.94 227.69 92.6548 227.69 94.77C227.69 96.8853 229.405 98.6 231.52 98.6H262.45C264.565 98.6 266.28 96.8853 266.28 94.77C266.28 92.6548 264.565 90.94 262.45 90.94Z" fill="#C39BB0"/>
<path opacity="0.2" d="M217.68 76.32H197.22C193.514 76.32 190.51 79.3242 190.51 83.03V99.94C190.51 103.646 193.514 106.65 197.22 106.65H217.68C221.386 106.65 224.39 103.646 224.39 99.94V83.03C224.39 79.3242 221.386 76.32 217.68 76.32Z" fill="url(#emptysearch-8)"/>
<path d="M193.81 99.83L200.39 91.49L205.1 94.65L211.69 84.06L221.33 99.83H193.81Z" fill="#E8B586"/>
<path d="M203.22 88.98C204.899 88.98 206.26 87.6189 206.26 85.94C206.26 84.261 204.899 82.9 203.22 82.9C201.541 82.9 200.18 84.261 200.18 85.94C200.18 87.6189 201.541 88.98 203.22 88.98Z" fill="#E8B586"/>
<path d="M361.41 80.82C361.41 78.3347 359.395 76.32 356.91 76.32C354.425 76.32 352.41 78.3347 352.41 80.82C352.41 83.3053 354.425 85.32 356.91 85.32C359.395 85.32 361.41 83.3053 361.41 80.82Z" fill="url(#emptysearch-9)"/>
<path d="M358.15 155.07H283.62C281.218 155.07 279.27 157.018 279.27 159.42V161.44C279.27 163.842 281.218 165.79 283.62 165.79H358.15C360.552 165.79 362.5 163.842 362.5 161.44V159.42C362.5 157.018 360.552 155.07 358.15 155.07Z" fill="#9F5F80"/>
<path d="M328.68 196.29H276.18C274.462 196.29 273.07 197.682 273.07 199.4V200.85C273.07 202.568 274.462 203.96 276.18 203.96H328.68C330.397 203.96 331.79 202.568 331.79 200.85V199.4C331.79 197.682 330.397 196.29 328.68 196.29Z" fill="#E6D0BE"/>
<path d="M440.59 207.27H282.78C281.062 207.27 279.67 208.662 279.67 210.38V211.83C279.67 213.548 281.062 214.94 282.78 214.94H440.59C442.308 214.94 443.7 213.548 443.7 211.83V210.38C443.7 208.662 442.308 207.27 440.59 207.27Z" fill="#E6D0BE"/>
<path d="M384.26 196.29H338.39C336.672 196.29 335.28 197.682 335.28 199.4V200.85C335.28 202.568 336.672 203.96 338.39 203.96H384.26C385.977 203.96 387.37 202.568 387.37 200.85V199.4C387.37 197.682 385.977 196.29 384.26 196.29Z" fill="#E6D0BE"/>
<path d="M440.59 196.29H394.72C393.002 196.29 391.61 197.682 391.61 199.4V200.85C391.61 202.568 393.002 203.96 394.72 203.96H440.59C442.307 203.96 443.7 202.568 443.7 200.85V199.4C443.7 197.682 442.307 196.29 440.59 196.29Z" fill="#E6D0BE"/>
<path d="M323 173.09H283.1C280.985 173.09 279.27 174.805 279.27 176.92V178.7C279.27 180.815 280.985 182.53 283.1 182.53H323C325.115 182.53 326.83 180.815 326.83 178.7V176.92C326.83 174.805 325.115 173.09 323 173.09Z" fill="#9F5F80"/>
<path d="M264.055 155H238.945C235.662 155 233 157.974 233 161.642V185.358C233 189.026 235.662 192 238.945 192H264.055C267.338 192 270 189.026 270 185.358V161.642C270 157.974 267.338 155 264.055 155Z" fill="#FFF2F2"/>
<path d="M111.69 372.82C115.849 372.82 119.22 369.449 119.22 365.29C119.22 361.131 115.849 357.76 111.69 357.76C107.531 357.76 104.16 361.131 104.16 365.29C104.16 369.449 107.531 372.82 111.69 372.82Z" fill="#CCD5DA"/>
<path d="M293.57 66C228.2 66 175.22 118.32 175.22 182.87C175.22 247.42 228.22 299.74 293.57 299.74C358.92 299.74 411.92 247.41 411.92 182.87C411.92 118.33 358.93 66 293.57 66ZM293.57 281.27C238.57 281.27 193.92 237.21 193.92 182.87C193.92 128.53 238.53 84.47 293.57 84.47C348.61 84.47 393.22 128.52 393.22 182.87C393.22 237.22 348.6 281.27 293.57 281.27Z" fill="#F39200"/>
<path d="M366.24 276.12C366.088 276.121 365.938 276.087 365.801 276.021C365.664 275.955 365.544 275.859 365.45 275.74C365.368 275.636 365.307 275.518 365.272 275.391C365.236 275.264 365.225 275.131 365.241 275C365.257 274.868 365.299 274.742 365.364 274.627C365.429 274.512 365.516 274.411 365.62 274.33C415.13 235.56 410.97 180.33 410.93 179.73C410.178 153.032 400.118 127.436 382.49 107.37C369.05 91.97 355.7 84.54 355.56 84.47C355.445 84.4064 355.344 84.3207 355.262 84.2179C355.18 84.1151 355.119 83.9971 355.083 83.8708C355.047 83.7445 355.036 83.6123 355.051 83.4818C355.066 83.3512 355.106 83.2249 355.17 83.11C355.299 82.8805 355.512 82.7109 355.765 82.6379C356.018 82.5649 356.289 82.5944 356.52 82.72C356.66 82.79 370.28 90.35 383.94 105.99C401.905 126.392 412.165 152.437 412.94 179.61C412.94 179.7 414.11 193.92 409.02 212.8C402.224 237.868 387.423 260.03 366.87 275.91C366.69 276.05 366.468 276.124 366.24 276.12Z" fill="#9F5F80"/>
<path d="M372.52 243.91C372.292 243.906 372.071 243.829 371.89 243.69C371.787 243.607 371.702 243.505 371.638 243.39C371.575 243.274 371.536 243.147 371.522 243.016C371.508 242.885 371.52 242.753 371.557 242.626C371.595 242.5 371.657 242.382 371.74 242.28C403.17 203.12 388.96 157.89 388.82 157.44C372.44 105.02 328.57 91.74 328.13 91.61C295.13 80.39 268.49 87.14 251.94 94.77C233.94 103.06 223.65 114.15 223.54 114.26C223.362 114.456 223.114 114.573 222.849 114.586C222.585 114.599 222.326 114.507 222.13 114.33C222.032 114.241 221.953 114.134 221.897 114.014C221.841 113.894 221.809 113.765 221.804 113.633C221.798 113.5 221.819 113.369 221.864 113.245C221.91 113.121 221.98 113.007 222.07 112.91C222.17 112.8 232.71 101.45 251.02 92.99C267.92 85.18 295.13 78.27 328.73 89.71C329.14 89.82 374.01 103.36 390.73 156.83C390.88 157.28 405.41 203.54 373.31 243.53C373.216 243.649 373.096 243.745 372.959 243.811C372.822 243.877 372.672 243.911 372.52 243.91Z" fill="#9F5F80"/>
<path d="M294.38 300.51C259.38 300.51 234.38 287.03 219.05 274.86C200.11 259.86 191.21 243.54 191.13 243.38C162.61 195.29 179.37 148.38 179.54 147.96C179.632 147.713 179.818 147.512 180.058 147.401C180.298 147.291 180.572 147.279 180.82 147.37C181.069 147.46 181.272 147.646 181.385 147.886C181.497 148.126 181.51 148.401 181.42 148.65C181.25 149.11 164.84 195.12 192.87 242.4C192.97 242.59 201.72 258.61 220.36 273.4C237.54 286.98 266.89 302.23 309.2 297.77C309.465 297.742 309.73 297.821 309.938 297.989C310.145 298.156 310.277 298.4 310.305 298.665C310.333 298.93 310.254 299.196 310.086 299.403C309.918 299.61 309.675 299.742 309.41 299.77C304.416 300.276 299.399 300.523 294.38 300.51Z" fill="#9F5F80"/>
<path d="M189.33 288.17C189.074 288.172 188.827 288.075 188.64 287.9C188.546 287.807 188.472 287.696 188.421 287.575C188.37 287.453 188.344 287.322 188.344 287.19C188.344 287.058 188.37 286.927 188.421 286.805C188.472 286.684 188.546 286.573 188.64 286.48L209.32 264.87C209.507 264.684 209.761 264.579 210.025 264.579C210.289 264.579 210.543 264.684 210.73 264.87C210.824 264.963 210.898 265.074 210.949 265.195C211 265.317 211.026 265.448 211.026 265.58C211.026 265.712 211 265.843 210.949 265.965C210.898 266.086 210.824 266.197 210.73 266.29L190.06 287.9C189.963 287.992 189.848 288.063 189.722 288.109C189.597 288.155 189.464 288.176 189.33 288.17Z" fill="#9F5F80"/>
<path d="M112.99 373.97C110.084 373.861 107.311 372.727 105.16 370.77C104.964 370.591 104.847 370.341 104.835 370.076C104.822 369.811 104.916 369.551 105.095 369.355C105.274 369.159 105.524 369.042 105.789 369.029C106.055 369.017 106.314 369.111 106.51 369.29C106.78 369.53 113.12 375.15 118.51 369.35C118.69 369.155 118.941 369.04 119.206 369.029C119.472 369.019 119.73 369.115 119.925 369.295C120.12 369.475 120.235 369.726 120.246 369.991C120.256 370.256 120.16 370.515 119.98 370.71C119.118 371.724 118.047 372.54 116.841 373.102C115.634 373.665 114.321 373.961 112.99 373.97Z" fill="#9F5F80"/>
<path d="M196.453 291.945L184.92 280.412C182.94 278.432 179.73 278.432 177.75 280.412L105.484 352.678C103.504 354.658 103.504 357.868 105.484 359.848L117.017 371.381C118.996 373.361 122.207 373.361 124.187 371.381L196.453 299.115C198.433 297.135 198.433 293.925 196.453 291.945Z" fill="url(#emptysearch-10)"/>
</g>
<path d="M260.432 174.46C260.432 178.361 259.659 181.477 258.114 183.808C256.594 186.139 254.377 187.304 251.464 187.304C248.626 187.304 246.435 186.139 244.89 183.808C243.344 181.477 242.572 178.361 242.572 174.46C242.572 170.533 243.344 167.43 244.89 165.15C246.435 162.845 248.626 161.692 251.464 161.692C254.326 161.692 256.53 162.845 258.076 165.15C259.646 167.43 260.432 170.533 260.432 174.46ZM248.386 168.076C247.626 169.545 247.246 171.673 247.246 174.46C247.246 177.247 247.613 179.4 248.348 180.92C249.108 182.415 250.146 183.162 251.464 183.162C252.832 183.162 253.883 182.415 254.618 180.92C255.378 179.425 255.758 177.272 255.758 174.46C255.758 171.648 255.365 169.507 254.58 168.038C253.82 166.569 252.781 165.834 251.464 165.834C250.172 165.834 249.146 166.581 248.386 168.076Z" fill="#9F5F80"/>
<defs>
<linearGradient id="emptysearch-1" x1="77" y1="0" x2="573.445" y2="350.762" gradientUnits="userSpaceOnUse">
<stop stop-color="#F39200" stop-opacity="0"/>
<stop offset="1" stop-color="#F83600"/>
</linearGradient>
<linearGradient id="emptysearch-2" x1="332.39" y1="243.91" x2="332.39" y2="274.24" gradientUnits="userSpaceOnUse">
<stop stop-color="#F12711"/>
<stop offset="1" stop-color="#F5AF19" stop-opacity="0"/>
</linearGradient>
<linearGradient id="emptysearch-3" x1="470.735" y1="243.91" x2="470.735" y2="252.91" gradientUnits="userSpaceOnUse">
<stop stop-color="#FFF1E3"/>
<stop offset="1" stop-color="#E8B586"/>
</linearGradient>
<linearGradient id="emptysearch-4" x1="481.85" y1="243.91" x2="481.85" y2="252.91" gradientUnits="userSpaceOnUse">
<stop stop-color="#FFF1E3"/>
<stop offset="1" stop-color="#E8B586"/>
</linearGradient>
<linearGradient id="emptysearch-5" x1="426" y1="155" x2="426" y2="165" gradientUnits="userSpaceOnUse">
<stop stop-color="#FFF1E3"/>
<stop offset="1" stop-color="#E8B586"/>
</linearGradient>
<linearGradient id="emptysearch-6" x1="439.96" y1="155" x2="439.96" y2="165" gradientUnits="userSpaceOnUse">
<stop stop-color="#FFF1E3"/>
<stop offset="1" stop-color="#E8B586"/>
</linearGradient>
<linearGradient id="emptysearch-7" x1="345.95" y1="76.32" x2="345.95" y2="85.32" gradientUnits="userSpaceOnUse">
<stop stop-color="#FFF1E3"/>
<stop offset="1" stop-color="#E8B586"/>
</linearGradient>
<linearGradient id="emptysearch-8" x1="207.45" y1="76.32" x2="207.45" y2="106.65" gradientUnits="userSpaceOnUse">
<stop stop-color="#F12711"/>
<stop offset="1" stop-color="#F5AF19" stop-opacity="0"/>
</linearGradient>
<linearGradient id="emptysearch-9" x1="356.91" y1="76.32" x2="356.91" y2="85.32" gradientUnits="userSpaceOnUse">
<stop stop-color="#FFF1E3"/>
<stop offset="1" stop-color="#E8B586"/>
</linearGradient>
<linearGradient id="emptysearch-10" x1="181.335" y1="276.827" x2="207.288" y2="311.87" gradientUnits="userSpaceOnUse">
<stop stop-color="#F39200"/>
<stop offset="1" stop-color="#F83600"/>
</linearGradient>
<clipPath id="emptysearch-11">
<rect width="391.51" height="308.97" fill="white" transform="translate(104 65)"/>
</clipPath>
</defs>
</svg>
